<?xml version="1.0" encoding="UTF-8" standalone="no"?>
<svg
   xmlns:dc="http://purl.org/dc/elements/1.1/"
   xmlns:cc="http://creativecommons.org/ns#"
   xmlns:rdf="http://www.w3.org/1999/02/22-rdf-syntax-ns#"
   xmlns:svg="http://www.w3.org/2000/svg"
   xmlns="http://www.w3.org/2000/svg"
   viewBox="0 0 32 40"
   height="40"
   width="32"
   xml:space="preserve"
   id="svg2"
   version="1.1"><metadata
     id="metadata8"><rdf:RDF><cc:Work
         rdf:about=""><dc:format>image/svg+xml</dc:format><dc:type
           rdf:resource="http://purl.org/dc/dcmitype/StillImage" /></cc:Work></rdf:RDF></metadata><defs
     id="defs6"><clipPath
       id="clipPath18"
       clipPathUnits="userSpaceOnUse"><path
         id="path16"
         d="m 2.92,4.334 h 18.161 v 18.74 H 2.92 Z" /></clipPath></defs><g
     transform="matrix(1.3333333,0,0,-1.3333333,0,40)"
     id="g10"><g
       id="g12"><g
         clip-path="url(#clipPath18)"
         id="g14"><g
           transform="translate(21.0803,5.5832)"
           id="g20"><path
             id="path22"
             style="fill:#000000;fill-opacity:1;fill-rule:nonzero;stroke:none"
             d="M 0,0 -4.448,4.589 V 4.587 c 1.056,1.361 1.689,3.082 1.689,4.956 0,4.384 -3.452,7.947 -7.7,7.947 -4.247,0 -7.702,-3.563 -7.702,-7.947 0,-4.382 3.455,-7.947 7.702,-7.947 1.816,0 3.485,0.654 4.804,1.744 l 4.445,-4.589 z m -10.459,3.363 c -3.303,0 -5.991,2.773 -5.991,6.18 0,3.409 2.688,6.182 5.991,6.182 3.302,0 5.99,-2.773 5.99,-6.182 0,-3.407 -2.688,-6.18 -5.99,-6.18" /></g></g></g></g></svg>
